<?xml version="1.0" ?><svg width="20px" height="20px" viewBox="0 0 20 20" version="1.1" xmlns="http://www.w3.org/2000/svg"><g id="layer1"><path d="M 9.3457031 2.0019531 L 8.734375 2.0351562 L 8.125 2.1113281 L 7.5214844 2.2324219 L 6.9316406 2.3964844 L 6.3535156 2.6035156 L 5.7929688 2.8515625 L 5.2480469 3.1386719 L 4.7304688 3.4648438 L 4.234375 3.828125 L 3.765625 4.2246094 L 3.328125 4.6542969 L 2.9238281 5.1152344 L 2.5527344 5.6035156 L 2.2167969 6.1191406 L 1.9179688 6.6542969 L 1.6621094 7.2128906 L 1.4433594 7.7851562 L 1.2695312 8.3730469 L 1.1386719 8.9746094 L 1.0488281 9.5820312 L 1.0058594 10.193359 L 1.0058594 10.808594 L 1.0488281 11.417969 L 1.1386719 12.025391 L 1.2695312 12.626953 L 1.4433594 13.212891 L 1.6621094 13.787109 L 1.9179688 14.345703 L 2.2167969 14.880859 L 2.5527344 15.396484 L 2.9238281 15.884766 L 3.328125 16.345703 L 3.765625 16.775391 L 4.234375 17.171875 L 4.7304688 17.535156 L 5.2480469 17.861328 L 5.7929688 18.148438 L 6.3535156 18.394531 L 6.9316406 18.603516 L 7.5214844 18.765625 L 8.125 18.888672 L 8.734375 18.964844 L 9.3457031 18.998047 L 9.9609375 18.988281 L 10.572266 18.933594 L 11.175781 18.832031 L 11.773438 18.689453 L 12.357422 18.505859 L 12.927734 18.277344 L 13.480469 18.009766 L 14.011719 17.703125 L 14.521484 17.357422 L 15.001953 16.976562 L 15.455078 16.564453 L 15.876953 16.117188 L 16.265625 15.642578 L 16.619141 15.142578 L 16.9375 14.617188 L 17.212891 14.068359 L 17.451172 13.501953 L 17.646484 12.921875 L 17.800781 12.326172 L 17.910156 11.724609 L 17.976562 11.113281 L 18 10.5 L 17.976562 9.8867188 L 17.910156 9.2753906 L 17.800781 8.6738281 L 17.646484 8.078125 L 17.451172 7.4980469 L 17.212891 6.9316406 L 16.9375 6.3828125 L 16.619141 5.8574219 L 16.265625 5.3574219 L 15.876953 4.8808594 L 15.455078 4.4355469 L 15.001953 4.0214844 L 14.521484 3.6425781 L 14.011719 3.296875 L 13.480469 2.9902344 L 12.927734 2.7226562 L 12.357422 2.4960938 L 11.773438 2.3105469 L 11.175781 2.1679688 L 10.572266 2.0683594 L 9.9609375 2.0117188 L 9.3457031 2.0019531 z M 9.6445312 3.0019531 L 10.224609 3.0351562 L 10.800781 3.1152344 L 11.369141 3.2363281 L 11.927734 3.4042969 L 12.46875 3.6132812 L 12.996094 3.8632812 L 13.498047 4.1542969 L 13.978516 4.484375 L 14.431641 4.8496094 L 14.853516 5.2480469 L 15.244141 5.6796875 L 15.599609 6.1386719 L 15.919922 6.6230469 L 16.201172 7.1328125 L 16.441406 7.6621094 L 16.640625 8.2109375 L 16.798828 8.7714844 L 16.910156 9.3417969 L 16.976562 9.9199219 L 17 10.5 L 16.976562 11.080078 L 16.910156 11.658203 L 16.798828 12.228516 L 16.640625 12.789062 L 16.441406 13.335938 L 16.201172 13.865234 L 15.919922 14.375 L 15.599609 14.861328 L 15.244141 15.322266 L 14.853516 15.751953 L 14.431641 16.150391 L 13.978516 16.515625 L 13.498047 16.845703 L 12.996094 17.136719 L 12.46875 17.386719 L 11.927734 17.595703 L 11.369141 17.763672 L 10.800781 17.886719 L 10.224609 17.964844 L 9.6445312 17.998047 L 9.0644531 17.988281 L 8.484375 17.929688 L 7.9121094 17.828125 L 7.3496094 17.683594 L 6.7988281 17.496094 L 6.2636719 17.265625 L 5.75 16.996094 L 5.2578125 16.683594 L 4.7910156 16.337891 L 4.3535156 15.955078 L 3.9453125 15.539062 L 3.5722656 15.09375 L 3.234375 14.621094 L 2.9335938 14.123047 L 2.671875 13.603516 L 2.453125 13.064453 L 2.2753906 12.509766 L 2.140625 11.943359 L 2.0507812 11.369141 L 2.0058594 10.791016 L 2.0058594 10.208984 L 2.0507812 9.6289062 L 2.140625 9.0546875 L 2.2753906 8.4902344 L 2.453125 7.9355469 L 2.671875 7.3964844 L 2.9335938 6.8769531 L 3.234375 6.3789062 L 3.5722656 5.9042969 L 3.9453125 5.4609375 L 4.3535156 5.0449219 L 4.7910156 4.6621094 L 5.2578125 4.3144531 L 5.75 4.0039062 L 6.2636719 3.734375 L 6.7988281 3.5039062 L 7.3496094 3.3164062 L 7.9121094 3.1699219 L 8.484375 3.0703125 L 9.0644531 3.0117188 L 9.6445312 3.0019531 z M 9.4335938 5 L 9.1738281 5.0175781 L 8.9199219 5.0566406 L 8.6699219 5.1171875 L 8.4238281 5.1992188 L 8.1875 5.3007812 L 7.9609375 5.4238281 L 7.7441406 5.5664062 L 7.5429688 5.7246094 L 7.3535156 5.9023438 L 7.1816406 6.09375 L 7.0273438 6.3007812 L 6.8886719 6.5195312 L 6.7714844 6.7480469 L 6.6738281 6.9882812 L 6.5976562 7.234375 L 6.5429688 7.4863281 L 6.5097656 7.7421875 L 6.4980469 8 L 7.4980469 8 L 7.5097656 7.7890625 L 7.5429688 7.5820312 L 7.5976562 7.3789062 L 7.6738281 7.1835938 L 7.7695312 6.9960938 L 7.8828125 6.8203125 L 8.0175781 6.65625 L 8.1660156 6.5078125 L 8.3300781 6.3769531 L 8.5058594 6.2636719 L 8.6953125 6.1679688 L 8.890625 6.09375 L 9.09375 6.0410156 L 9.3027344 6.0097656 L 9.5117188 6 L 9.7207031 6.0117188 L 9.9296875 6.046875 L 10.130859 6.1015625 L 10.328125 6.1777344 L 10.513672 6.2753906 L 10.689453 6.3925781 L 10.851562 6.5253906 L 11 6.6757812 L 11.130859 6.8398438 L 11.242188 7.0175781 L 11.335938 7.2070312 L 11.408203 7.4042969 L 11.460938 7.6074219 L 11.492188 7.8144531 L 11.5 8.0253906 L 11.486328 8.234375 L 11.449219 8.4414062 L 11.392578 8.6445312 L 11.314453 8.8398438 L 11.216797 9.0253906 L 11.099609 9.1992188 L 9.5996094 11.199219 L 9.4628906 11.398438 L 9.3417969 11.607422 L 9.2382812 11.826172 L 9.1542969 12.050781 L 9.0859375 12.283203 L 9.0371094 12.519531 L 9.0078125 12.759766 L 9 13 L 10 13 L 10.007812 12.816406 L 10.033203 12.634766 L 10.074219 12.455078 L 10.132812 12.28125 L 10.207031 12.113281 L 10.296875 11.951172 L 10.400391 11.800781 L 11.900391 9.8007812 L 12.044922 9.5859375 L 12.173828 9.3613281 L 12.28125 9.1289062 L 12.367188 8.8847656 L 12.431641 8.6347656 L 12.476562 8.3808594 L 12.498047 8.1230469 L 12.498047 7.8652344 L 12.474609 7.6074219 L 12.429688 7.3535156 L 12.363281 7.1054688 L 12.277344 6.8613281 L 12.167969 6.6289062 L 12.041016 6.4042969 L 11.894531 6.1914062 L 11.730469 5.9921875 L 11.548828 5.8085938 L 11.353516 5.640625 L 11.142578 5.4902344 L 10.921875 5.3574219 L 10.689453 5.2441406 L 10.449219 5.1523438 L 10.201172 5.0820312 L 9.9472656 5.0332031 L 9.6894531 5.0058594 L 9.4335938 5 z M 9 15 L 9 16 L 10 16 L 10 15 L 9 15 z " style="fill:#222222; fill-opacity:1; stroke:none; stroke-width:0px;"/></g></svg>