<svg width="172" height="107" viewBox="0 0 172 107" fill="none" xmlns="http://www.w3.org/2000/svg">
<rect width="172" height="107" rx="15" fill="#10A6C8"/>
<path d="M31 80.9821L141 80" stroke="white" stroke-opacity="0.8" stroke-width="20" stroke-linecap="round"/>
<path d="M113.076 27.2445L110.757 12.1718C110.587 11.0683 110.639 9.94214 110.91 8.85907C111.845 5.1218 115.202 2.5 119.055 2.5H124.076C128.59 2.5 132.682 5.15885 134.515 9.28453C135.165 10.7452 135.5 12.3259 135.5 13.9244V20.6638C135.5 21.8854 135.612 23.1044 135.834 24.3055L137.127 31.2845C137.687 34.3095 139.399 36.9993 141.902 38.7874C143.917 40.2264 146.331 41 148.807 41H154.311C156.387 41 158.415 41.6332 160.122 42.8153C162.582 44.5186 164.172 47.2156 164.469 50.1932L164.85 54.0048C164.95 55 164.969 56.0015 164.906 56.9997L164.213 68.0959C164.072 70.349 163.551 72.5621 162.671 74.6412L158.854 83.6634C158.624 84.2071 158.227 84.6637 157.721 84.9674C155.863 86.082 153.5 84.7438 153.5 82.5774V79.6347C153.5 77.9141 151.741 76.754 150.159 77.4318C150.053 77.4772 149.944 77.5149 149.833 77.5446L142.5 79.5L133.116 80.9438C130.763 81.3056 128.357 80.9284 126.228 79.864C123.227 78.3636 121.032 75.6267 120.218 72.3717L120.138 72.0538C119.718 70.3706 119.661 68.6171 119.971 66.9101L120.71 62.8467C121.23 59.9834 122.369 57.2682 124.048 54.8907L125.777 52.441C126.909 50.8375 127.635 48.9838 127.895 47.0384L128.312 43.9085C128.433 43.0006 128.22 42.0798 127.712 41.3177C126.511 39.5159 124.042 39.0931 122.31 40.3924L119.91 42.1925C119.637 42.3971 119.347 42.5767 119.042 42.7292L118.037 43.2315C117.069 43.7153 115.931 43.7153 114.963 43.2315C114.037 42.7687 113.37 41.9134 113.145 40.9032L112.767 39.2007C112.59 38.4061 112.552 37.5872 112.653 36.7795L113.154 32.7664C113.384 30.931 113.357 29.0727 113.076 27.2445Z" fill="white" fill-opacity="0.3"/>
<path d="M58.8675 62.1026L59.0215 62.5645C59.9044 65.2133 62.3833 67 65.1754 67C67.7942 67 70.1561 65.4254 71.1633 63.0081L71.4231 62.3846C71.8039 61.4706 72 60.4902 72 59.5V51.5754C72 51.1925 72.033 50.8103 72.0986 50.4331L73.245 43.8411C73.5872 41.8736 75.9017 40.9791 77.4781 42.2052C78.1229 42.7067 78.5 43.4778 78.5 44.2946V49.6076C78.5 50.5334 78.4048 51.4568 78.216 52.3631L76 63L74.283 70.2972C74.095 71.0964 74 71.9146 74 72.7356V75.4261C74 77.6319 75.1959 79.6644 77.1242 80.7356C78.0265 81.2369 79.0417 81.5 80.0739 81.5H83.5H95H102C102.99 81.5 103.971 81.3039 104.885 80.9231C107.679 79.7586 109.5 77.0278 109.5 74V71.5V68.407C109.5 64.8659 110.44 61.3883 112.224 58.3296L113 57L114.585 53.1955C115.166 51.8014 115.112 50.2235 114.436 48.8727C113.556 47.1121 111.757 46 109.788 46H107.5H100.035C96.8793 46 93.9223 44.4604 92.1128 41.8754C91.7055 41.2936 91.3636 40.6686 91.0931 40.0119L88.5715 33.8879C88.191 32.9639 87.7419 32.0698 87.2278 31.213L83.5 25L81.698 21.5762C79.7313 17.8395 75.8563 15.5 71.6336 15.5C70.2235 15.5 68.8257 15.7622 67.5115 16.2733L64.3269 17.5118C61.8256 18.4845 59.6466 20.1379 58.0363 22.2849L56.6017 24.1977C56.206 24.7253 55.6929 25.1535 55.103 25.4485C52.8898 26.5551 52.1088 29.348 53.3819 31.4699C53.7827 32.1378 54 32.9114 54 33.6903V39.25C54 41.6842 54.7895 44.0527 56.25 46C57.7105 47.9473 58.5 50.3158 58.5 52.75V59.8377C58.5 60.6075 58.6241 61.3723 58.8675 62.1026Z" fill="white" fill-opacity="0.3"/>
<path d="M17.0261 66.5523L17.3379 67.1758C18.0501 68.6002 19.506 69.5 21.0985 69.5C22.0082 69.5 22.8934 69.2049 23.6212 68.6591L24.1888 68.2334C25.6568 67.1324 26.5751 65.4487 26.7058 63.6183L26.864 61.404C26.9498 60.2029 27.5864 59.1091 28.5883 58.4411L29.1839 58.0441C30.5011 57.1659 32.2685 57.4222 33.282 58.6384C33.7459 59.1951 34 59.8969 34 60.6215V62.4016C34 64.3953 33.2569 66.3174 31.9158 67.7926L29 71L27.7279 72.8173C26.3049 74.8501 25.7753 77.3764 26.2619 79.8096L26.2822 79.9109C26.7418 82.2089 28.0955 84.2303 30.0455 85.5303C31.0059 86.1706 32.0824 86.6165 33.2141 86.8428L37.0388 87.6078C38.3335 87.8667 39.6665 87.8667 40.9612 87.6078L45.529 86.6942C46.1748 86.565 46.8317 86.5 47.4902 86.5H53.5H64.9018C66.1877 86.5 67.3633 85.7735 67.9384 84.6233C68.3008 83.8984 68.392 83.0678 68.1954 82.2816L67 77.5L65.7199 74.1716C64.953 72.1777 63.2826 70.668 61.2216 70.1059C59.7817 69.7132 58.5138 68.8518 57.6183 67.6578L57.4783 67.4711C56.5187 66.1916 56 64.6355 56 63.0361V58.2321C56 57.0859 55.8029 55.9482 55.4174 54.8688L53.5 49.5L50.5 43.5L47.4154 38.8731C46.8092 37.9638 46.0581 37.1601 45.192 36.4938L41.0568 33.3129C40.3554 32.7734 39.5854 32.3293 38.7672 31.9924L33.3292 29.7532C32.1215 29.2559 30.8279 29 29.5217 29H26.8566C25.9591 29 25.0685 29.1569 24.225 29.4636C21.6145 30.4129 19.7176 32.6946 19.2609 35.4345L18.6361 39.1836C18.5455 39.7269 18.5 40.2768 18.5 40.8276V48V57.4844C18.5 58.8053 18.1553 60.1032 17.5 61.25L17.1566 61.8509C16.7263 62.6039 16.5 63.4562 16.5 64.3235C16.5 65.0972 16.6801 65.8603 17.0261 66.5523Z" fill="white" fill-opacity="0.3"/>
</svg>
