<svg width="512" height="512" xmlns="http://www.w3.org/2000/svg" xml:space="preserve" version="1.1">

 <g>
  <title>Layer 1</title>
  <g transform="rotate(180 256 263.804)" id="svg_1">
   <path id="svg_2" fill="#000000" d="m14.1,283.4l98,98c9.6,9.6 25.3,11 35.4,1.9c10.7,-9.7 11.1,-26.2 1,-36.3l-44.4,-44.4c-5,-5 -1.5,-13.6 5.6,-13.6l160.2,0c13.6,0 25.7,-10.1 26.4,-23.7c0.8,-14.4 -10.7,-26.4 -25,-26.4l-161.6,0c-7.1,0 -10.6,-8.6 -5.6,-13.6l43.4,-43.4c9.6,-9.6 11,-25.3 1.9,-35.4c-9.7,-10.7 -26.2,-11.1 -36.3,-1l-99,99c-10.8,10.8 -10.8,28.2 0,38.9z" class="st0"/>
   <path id="svg_3" fill="#000000" d="m364.1,289l28.8,0c13.8,0 25,-11.2 25,-25c0,-13.8 -11.2,-25 -25,-25l-28.8,0c-13.8,0 -25,11.2 -25,25c0,13.8 11.2,25 25,25z" class="st0"/>
   <path id="svg_4" fill="#000000" d="m478.3,289l2.7,0c13.8,0 25,-11.2 25,-25c0,-13.8 -11.2,-25 -25,-25l-2.7,0c-13.8,0 -25,11.2 -25,25c-0.1,13.8 11.1,25 25,25z" class="st0"/>
  </g>
 </g>
</svg>