<svg width="671" height="106" xmlns="http://www.w3.org/2000/svg" xml:space="preserve" version="1.1">

 <g>
  <title>Layer 1</title>
  <path transform="rotate(45 312.971 52.7544)" id="svg_1" d="m566.27376,-200.54899c-2.122,-2.122 -5.304,-2.775 -8.089,-1.66l-96,38.4c-2.847,1.139 -4.714,3.897 -4.714,6.963l0,54.494l-283.606,283.607l-60.894,0c-4.142,0 -7.5,3.358 -7.5,7.5s3.358,7.5 7.5,7.5l45.894,0l-9,9l-60.894,0c-4.142,0 -7.5,3.358 -7.5,7.5s3.358,7.5 7.5,7.5l45.894,0l-9,9l-60.894,0c-4.142,0 -7.5,3.358 -7.5,7.5s3.358,7.5 7.5,7.5l56.5,0l0,56.5c0,4.142 3.358,7.5 7.5,7.5s7.5,-3.358 7.5,-7.5l0,-60.894l9,-9l0,45.894c0,4.142 3.358,7.5 7.5,7.5s7.5,-3.358 7.5,-7.5l0,-60.894l9,-9l0,45.894c0,4.142 3.358,7.5 7.5,7.5s7.5,-3.358 7.5,-7.5l0,-60.894l283.606,-283.606l54.494,0c3.067,0 5.825,-1.867 6.963,-4.714l38.4,-96c1.115,-2.786 0.462,-5.968 -1.66,-8.09zm-48.78,93.804l-34.416,0l35.197,-35.197c2.929,-2.929 2.929,-7.678 0,-10.606c-2.929,-2.929 -7.678,-2.929 -10.606,0l-35.198,35.196l0,-34.416l75.037,-30.015l-30.014,75.038z"/>
  <g id="svg_2"/>
  <g id="svg_3"/>
  <g id="svg_4"/>
  <g id="svg_5"/>
  <g id="svg_6"/>
  <g id="svg_7"/>
  <g id="svg_8"/>
  <g id="svg_9"/>
  <g id="svg_10"/>
  <g id="svg_11"/>
  <g id="svg_12"/>
  <g id="svg_13"/>
  <g id="svg_14"/>
  <g id="svg_15"/>
  <g id="svg_16"/>
 </g>
</svg>