<?xml version="1.0" encoding="iso-8859-1"?>
<!-- Generator: Adobe Illustrator 19.0.0, SVG Export Plug-In . SVG Version: 6.00 Build 0)  -->
<svg version="1.1" id="Layer_1" xmlns="http://www.w3.org/2000/svg" xmlns:xlink="http://www.w3.org/1999/xlink" x="0px" y="0px"
	 viewBox="0 0 512 512" style="enable-background:new 0 0 512 512;" xml:space="preserve">
<g>
	<g>
		<path d="M204.8,102.4C91.691,102.4,0,194.091,0,307.2S91.691,512,204.8,512s204.8-91.691,204.8-204.8S317.909,102.4,204.8,102.4z
			 M204.8,486.4c-98.807,0-179.2-80.393-179.2-179.2S105.993,128,204.8,128S384,208.393,384,307.2S303.607,486.4,204.8,486.4z"/>
	</g>
</g>
<g>
	<g>
		<path d="M307.2,0c-68.813,0-129.562,34.057-166.69,86.11c12.954-3.772,26.317-6.571,40.09-8.013
			C213.043,45.679,257.818,25.6,307.2,25.6c98.807,0,179.2,80.393,179.2,179.2c0,49.374-20.079,94.157-52.497,126.601
			c-1.442,13.781-4.241,27.145-8.013,40.09C477.943,334.362,512,273.613,512,204.8C512,91.691,420.309,0,307.2,0z"/>
	</g>
</g>
<g>
	<g>
		<path d="M243.2,371.2h-26.146V195.601c0-6.929-3.473-10.249-10.402-10.001c-6.938,0.273-10.539,3.601-10.803,10.001
			c-0.802,15.753-5.734,27.076-14.797,33.997c-7.74,5.871-19.072,8.798-33.997,8.798c-6.135,0-9.071,3.072-8.798,9.199
			c0.265,6.153,3.601,9.199,10.001,9.199h43.998V371.2H166.4c-7.074,0-12.8,5.726-12.8,12.8c0,7.074,5.726,12.8,12.8,12.8h76.8
			c7.074,0,12.8-5.726,12.8-12.8C256,376.926,250.274,371.2,243.2,371.2z"/>
	</g>
</g>
<g>
</g>
<g>
</g>
<g>
</g>
<g>
</g>
<g>
</g>
<g>
</g>
<g>
</g>
<g>
</g>
<g>
</g>
<g>
</g>
<g>
</g>
<g>
</g>
<g>
</g>
<g>
</g>
<g>
</g>
</svg>
