<?xml version="1.0" encoding="UTF-8" standalone="no"?>
<!-- Created with Inkscape (http://www.inkscape.org/) -->

<svg
   xmlns:dc="http://purl.org/dc/elements/1.1/"
   xmlns:cc="http://creativecommons.org/ns#"
   xmlns:rdf="http://www.w3.org/1999/02/22-rdf-syntax-ns#"
   xmlns:svg="http://www.w3.org/2000/svg"
   xmlns="http://www.w3.org/2000/svg"
   xmlns:sodipodi="http://sodipodi.sourceforge.net/DTD/sodipodi-0.dtd"
   xmlns:inkscape="http://www.inkscape.org/namespaces/inkscape"
   width="200.00002"
   height="200.00011"
   id="svg25636"
   version="1.1"
   inkscape:version="0.48.4 r9939"
   sodipodi:docname="Moscow Bus icon.svg">
  <defs
     id="defs25638">
    <clipPath
       clipPathUnits="userSpaceOnUse"
       id="clipPath20146-0">
      <path
         inkscape:connector-curvature="0"
         d="m 0,0 1805.102,0 0,2519.433 L 0,2519.433 0,0 z"
         id="path20148-6" />
    </clipPath>
    <clipPath
       clipPathUnits="userSpaceOnUse"
       id="clipPath20158-9">
      <path
         inkscape:connector-curvature="0"
         d="m 0,0 1805.102,0 0,2519.433 L 0,2519.433 0,0 z"
         id="path20160-7" />
    </clipPath>
  </defs>
  <sodipodi:namedview
     id="base"
     pagecolor="#ffffff"
     bordercolor="#666666"
     borderopacity="1.0"
     inkscape:pageopacity="0.0"
     inkscape:pageshadow="2"
     inkscape:zoom="1.979899"
     inkscape:cx="202.97973"
     inkscape:cy="55.609668"
     inkscape:document-units="px"
     inkscape:current-layer="layer1"
     showgrid="false"
     showguides="true"
     inkscape:guide-bbox="true"
     inkscape:snap-bbox="true"
     inkscape:bbox-paths="true"
     inkscape:bbox-nodes="true"
     inkscape:snap-bbox-edge-midpoints="true"
     inkscape:snap-bbox-midpoints="true"
     fit-margin-top="0"
     fit-margin-left="0"
     fit-margin-right="0"
     fit-margin-bottom="0"
     inkscape:window-width="1600"
     inkscape:window-height="837"
     inkscape:window-x="-8"
     inkscape:window-y="-8"
     inkscape:window-maximized="1">
    <sodipodi:guide
       orientation="1,0"
       position="0.31471838,922.85717"
       id="guide25661" />
    <sodipodi:guide
       orientation="0,1"
       position="46.024121,2.7623125e-005"
       id="guide25663" />
  </sodipodi:namedview>
  <metadata
     id="metadata25641">
    <rdf:RDF>
      <cc:Work
         rdf:about="">
        <dc:format>image/svg+xml</dc:format>
        <dc:type
           rdf:resource="http://purl.org/dc/dcmitype/StillImage" />
        <dc:title></dc:title>
      </cc:Work>
    </rdf:RDF>
  </metadata>
  <g
     inkscape:label="Layer 1"
     inkscape:groupmode="layer"
     id="layer1"
     transform="translate(0.31471838,-852.36209)">
    <path
       inkscape:connector-curvature="0"
       d="m 199.68529,1052.3622 -199.99920589,0 0,-199.99678 199.99920589,0 0,199.99678 z"
       style="fill:#4382bd;fill-opacity:1;fill-rule:nonzero;stroke:none"
       id="path20152" />
    <g
       transform="matrix(2.7159782,0,0,-2.7159448,-432.07839,7498.4235)"
       id="g20154">
      <g
         id="g20156"
         clip-path="url(#clipPath20158-9)">
        <g
           id="g20162"
           transform="translate(215.6907,2401.5112)">
          <path
             inkscape:connector-curvature="0"
             d="m 0,0 0,19.707 -6.798,6.753 -9.295,0 0,3.568 -3.549,0 -15.617,15.514 -5.084,-0.018 15.6,-15.496 -5.131,0 -15.6,15.496 -5.101,0 15.6,-15.496 -3.593,0 0,-3.568 -18.151,0 0,-6.753 3.444,0 0,-11.163 -3.444,0 0,-22.463 5.967,0 c -0.235,0.96 -0.354,1.946 -0.354,2.951 0,1.682 0.332,3.314 0.987,4.851 0.631,1.483 1.534,2.815 2.686,3.958 1.15,1.143 2.491,2.039 3.985,2.666 1.546,0.649 3.188,0.979 4.88,0.979 l 0,-3.264 c -5.097,-0.014 -9.226,-4.119 -9.226,-9.19 0,-1.032 0.172,-2.025 0.487,-2.951 1.235,-3.622 4.68,-6.231 8.739,-6.242 l 0.027,0 c 4.072,0 7.529,2.612 8.766,6.242 l 29.775,0 0,6.752 3.607,0 L 3.607,0 0,0 z m -33.852,-13.919 c -0.992,-1.577 -2.756,-2.627 -4.767,-2.627 -2.007,0 -3.77,1.05 -4.761,2.627 -0.538,0.856 -0.848,1.868 -0.848,2.951 0,3.078 2.51,5.576 5.609,5.576 3.104,0 5.617,-2.498 5.617,-5.576 0,-1.083 -0.311,-2.095 -0.85,-2.951 m 5.273,22.463 -21.088,0 0,11.163 21.088,0 0,-11.163 z m 12.486,-15.711 -8.879,0 0,26.874 8.879,0 0,-26.874 z m 12.486,0 -8.88,0 0,26.874 8.88,0 0,-26.874 z"
             style="fill:#ffffff;fill-opacity:1;fill-rule:nonzero;stroke:none"
             id="path20164" />
        </g>
      </g>
    </g>
  </g>
</svg>
