<svg width="73" height="137" viewBox="0 0 73 137" fill="none" xmlns="http://www.w3.org/2000/svg">
<path d="M23.5889 97.3252V92.6279C23.5889 87.8102 24.0405 83.6851 24.9438 80.2524C25.8472 76.7596 27.4129 73.5076 29.6411 70.4966C31.9295 67.4855 35.0911 64.2938 39.126 60.9214C43.8232 57.007 47.5269 53.6948 50.2368 50.9849C53.007 48.2147 54.9943 45.4445 56.1987 42.6743C57.4032 39.9041 58.0054 36.5618 58.0054 32.6475C58.0054 26.3844 55.988 21.5968 51.9531 18.2847C47.9183 14.9123 42.2274 13.2261 34.8804 13.2261C28.9185 13.2261 23.619 13.9788 18.9819 15.4844C14.3449 16.9899 9.88851 18.7965 5.61279 20.9043L0.373535 8.7998C5.31169 6.21029 10.6714 4.10254 16.4526 2.47656C22.2339 0.850586 28.6776 0.0375977 35.7837 0.0375977C47.4064 0.0375977 56.4095 2.92822 62.793 8.70947C69.1764 14.4305 72.3682 22.3195 72.3682 32.3765C72.3682 37.9771 71.4648 42.7646 69.6582 46.7393C67.8516 50.6536 65.2922 54.2669 61.98 57.5791C58.6678 60.8311 54.7534 64.2938 50.2368 67.9673C46.2622 71.3397 43.221 74.3206 41.1133 76.9102C39.0055 79.4395 37.5602 82.0591 36.7773 84.769C35.9945 87.4188 35.603 90.6105 35.603 94.3442V97.3252H23.5889ZM19.6143 124.605C19.6143 120.39 20.6079 117.409 22.5952 115.663C24.5825 113.856 27.1419 112.953 30.2734 112.953C33.2243 112.953 35.7235 113.856 37.771 115.663C39.8787 117.409 40.9326 120.39 40.9326 124.605C40.9326 128.761 39.8787 131.802 37.771 133.729C35.7235 135.596 33.2243 136.529 30.2734 136.529C27.1419 136.529 24.5825 135.596 22.5952 133.729C20.6079 131.802 19.6143 128.761 19.6143 124.605Z" fill="#1C1C1C"/>
</svg>
