<svg width="238" height="143" viewBox="0 0 238 143" fill="none" xmlns="http://www.w3.org/2000/svg">
<line x1="233" y1="32" x2="83" y2="32" stroke="#C3C3C3" stroke-width="10" stroke-linecap="round"/>
<line x1="233" y1="79" x2="83" y2="79" stroke="#C3C3C3" stroke-width="10" stroke-linecap="round"/>
<line x1="233" y1="126" x2="83" y2="126" stroke="#C3C3C3" stroke-width="10" stroke-linecap="round"/>
<rect x="36" width="172" height="107" rx="15" fill="#007DBD"/>
<path d="M53 18L94 18" stroke="white" stroke-opacity="0.3" stroke-width="20" stroke-linecap="round"/>
<path d="M53 42H72" stroke="white" stroke-opacity="0.8" stroke-width="20" stroke-linecap="round"/>
<circle cx="189" cy="23" r="10" fill="white" fill-opacity="0.9"/>
<circle cx="189" cy="65" r="10" fill="white" fill-opacity="0.9"/>
<circle cx="189" cy="44" r="10" fill="white" fill-opacity="0.9"/>
<rect x="19" y="18" width="172" height="107" rx="15" fill="#E5605C"/>
<path d="M36 36L77 36" stroke="white" stroke-opacity="0.3" stroke-width="20" stroke-linecap="round"/>
<path d="M36 60H81" stroke="white" stroke-opacity="0.8" stroke-width="20" stroke-linecap="round"/>
<circle cx="170" cy="104" r="10" fill="white" fill-opacity="0.9"/>
<circle cx="170" cy="41" r="10" fill="white" fill-opacity="0.9"/>
<circle cx="170" cy="83" r="10" fill="white" fill-opacity="0.9"/>
<circle cx="170" cy="62" r="10" fill="white" fill-opacity="0.9"/>
<rect y="36" width="172" height="107" rx="15" fill="#10A6C8"/>
<path d="M31 116.982L141 116" stroke="white" stroke-opacity="0.8" stroke-width="20" stroke-linecap="round"/>
<path d="M110.782 70.5895L111.141 68.7948C111.38 67.6012 111.5 66.3869 111.5 65.1697V58.2262C111.5 57.0775 111.401 55.931 111.204 54.7994L110.087 48.3729C109.714 46.231 110.291 44.033 111.668 42.3504C113.138 40.553 115.36 39.54 117.681 39.6083L125.196 39.8293C128.813 39.9357 132.126 41.8764 133.987 44.9787C134.977 46.6285 135.5 48.5163 135.5 50.4404V56.6638C135.5 57.8854 135.612 59.1044 135.834 60.3055L137.127 67.2845C137.687 70.3095 139.399 72.9993 141.902 74.7874C143.917 76.2264 146.331 77 148.807 77H154.311C156.387 77 158.415 77.6332 160.122 78.8153C162.582 80.5186 164.172 83.2156 164.469 86.1932L164.85 90.0048C164.95 91 164.969 92.0015 164.906 92.9997L164.213 104.096C164.072 106.349 163.551 108.562 162.671 110.641L159.193 118.863C158.743 119.927 157.966 120.82 156.976 121.415L156.796 121.523C154.839 122.697 152.344 122.449 150.656 120.915L149.029 119.435C148.41 118.873 148.206 117.985 148.516 117.209C149.129 115.678 147.733 114.104 146.14 114.529L142.5 115.5L130.563 117.887C128.543 118.291 126.461 118.269 124.45 117.822L121.63 117.196C117.077 116.184 113.686 112.364 113.222 107.723C113.076 106.256 113.23 104.776 113.677 103.371L115.646 97.1853C116.212 95.4039 117.026 93.7108 118.063 92.1553L121.5 87L128.995 73.884C129.314 73.3255 129.361 72.6519 129.122 72.0547C128.467 70.4164 126.209 70.2596 125.333 71.7917L122.47 76.802C121.847 77.8921 120.829 78.7012 119.627 79.062L118.11 79.517C117.06 79.8321 115.94 79.8321 114.89 79.517C112.819 78.8958 111.291 77.1387 110.962 75.002L110.719 73.4217C110.574 72.4812 110.595 71.5226 110.782 70.5895Z" fill="white" fill-opacity="0.3"/>
<path d="M58.8675 98.1026L59.0215 98.5645C59.9044 101.213 62.3833 103 65.1754 103C67.7942 103 70.1561 101.425 71.1633 99.0081L71.4231 98.3846C71.8039 97.4706 72 96.4902 72 95.5V87.5754C72 87.1925 72.033 86.8103 72.0986 86.4331L73.245 79.8411C73.5872 77.8736 75.9017 76.9791 77.4781 78.2052C78.1229 78.7067 78.5 79.4778 78.5 80.2946V85.6076C78.5 86.5334 78.4048 87.4568 78.216 88.3631L76 99L74.283 106.297C74.095 107.096 74 107.915 74 108.736V111.426C74 113.632 75.1959 115.664 77.1242 116.736C78.0265 117.237 79.0417 117.5 80.0739 117.5H83.5H95H102C102.99 117.5 103.971 117.304 104.885 116.923C107.679 115.759 109.5 113.028 109.5 110V107.5V104.407C109.5 100.866 110.44 97.3883 112.224 94.3296L113 93L114.585 89.1955C115.166 87.8014 115.112 86.2235 114.436 84.8727C113.556 83.1121 111.757 82 109.788 82H107.5H100.035C96.8793 82 93.9223 80.4604 92.1128 77.8754C91.7055 77.2936 91.3636 76.6686 91.0931 76.0119L88.5715 69.8879C88.191 68.9639 87.7419 68.0698 87.2278 67.213L83.5 61L81.698 57.5762C79.7313 53.8395 75.8563 51.5 71.6336 51.5C70.2235 51.5 68.8257 51.7622 67.5115 52.2733L64.3269 53.5118C61.8256 54.4845 59.6466 56.1379 58.0363 58.2849L56.6017 60.1977C56.206 60.7253 55.6929 61.1535 55.103 61.4485C52.8898 62.5551 52.1088 65.348 53.3819 67.4699C53.7827 68.1378 54 68.9114 54 69.6903V75.25C54 77.6842 54.7895 80.0527 56.25 82C57.7105 83.9473 58.5 86.3158 58.5 88.75V95.8377C58.5 96.6075 58.6241 97.3723 58.8675 98.1026Z" fill="white" fill-opacity="0.3"/>
<path d="M17.0261 102.552L17.3379 103.176C18.0501 104.6 19.506 105.5 21.0985 105.5C22.0082 105.5 22.8934 105.205 23.6212 104.659L24.1888 104.233C25.6568 103.132 26.5751 101.449 26.7058 99.6183L26.864 97.404C26.9498 96.2029 27.5864 95.1091 28.5883 94.4411L29.1839 94.0441C30.5011 93.1659 32.2685 93.4222 33.282 94.6384C33.7459 95.1951 34 95.8969 34 96.6215V98.4016C34 100.395 33.2569 102.317 31.9158 103.793L29 107L27.7279 108.817C26.3049 110.85 25.7753 113.376 26.2619 115.81L26.2822 115.911C26.7418 118.209 28.0955 120.23 30.0455 121.53C31.0059 122.171 32.0824 122.616 33.2141 122.843L37.0388 123.608C38.3335 123.867 39.6665 123.867 40.9612 123.608L45.529 122.694C46.1748 122.565 46.8317 122.5 47.4902 122.5H53.5H64.9018C66.1877 122.5 67.3633 121.773 67.9384 120.623C68.3008 119.898 68.392 119.068 68.1954 118.282L67 113.5L65.7199 110.172C64.953 108.178 63.2826 106.668 61.2216 106.106C59.7817 105.713 58.5138 104.852 57.6183 103.658L57.4783 103.471C56.5187 102.192 56 100.635 56 99.0361V94.2321C56 93.0859 55.8029 91.9482 55.4174 90.8688L53.5 85.5L50.5 79.5L47.4154 74.8731C46.8092 73.9638 46.0581 73.1601 45.192 72.4938L41.0568 69.3129C40.3554 68.7734 39.5854 68.3293 38.7672 67.9924L33.3292 65.7532C32.1215 65.2559 30.8279 65 29.5217 65H26.8566C25.9591 65 25.0685 65.1569 24.225 65.4636C21.6145 66.4129 19.7176 68.6946 19.2609 71.4345L18.6361 75.1836C18.5455 75.7269 18.5 76.2768 18.5 76.8276V84V93.4844C18.5 94.8053 18.1553 96.1032 17.5 97.25L17.1566 97.8509C16.7263 98.6039 16.5 99.4562 16.5 100.324C16.5 101.097 16.6801 101.86 17.0261 102.552Z" fill="white" fill-opacity="0.3"/>
</svg>
