<svg width="172" height="107" viewBox="0 0 172 107" fill="none" xmlns="http://www.w3.org/2000/svg">
<rect width="172" height="107" rx="15" fill="#10A6C8"/>
<path d="M31 80.9821L141 80" stroke="white" stroke-opacity="0.8" stroke-width="20" stroke-linecap="round"/>
<path d="M110.782 34.5895L111.141 32.7948C111.38 31.6012 111.5 30.3869 111.5 29.1697V22.2262C111.5 21.0775 111.401 19.931 111.204 18.7994L110.087 12.3729C109.714 10.231 110.291 8.03297 111.668 6.35036C113.138 4.553 115.36 3.54 117.681 3.60827L125.196 3.82931C128.813 3.93567 132.126 5.8764 133.987 8.97866C134.977 10.6285 135.5 12.5163 135.5 14.4404V20.6638C135.5 21.8854 135.612 23.1044 135.834 24.3055L137.127 31.2845C137.687 34.3095 139.399 36.9993 141.902 38.7874C143.917 40.2264 146.331 41 148.807 41H154.311C156.387 41 158.415 41.6332 160.122 42.8153C162.582 44.5186 164.172 47.2156 164.469 50.1932L164.85 54.0048C164.95 55 164.969 56.0015 164.906 56.9997L164.213 68.0959C164.072 70.349 163.551 72.5621 162.671 74.6412L159.193 82.8629C158.743 83.9268 157.966 84.8202 156.976 85.4146L156.796 85.5226C154.839 86.6965 152.344 86.4495 150.656 84.9146L149.029 83.4353C148.41 82.8729 148.206 81.9853 148.516 81.209C149.129 79.6783 147.733 78.1045 146.14 78.5293L142.5 79.5L130.563 81.8873C128.543 82.2913 126.461 82.2692 124.45 81.8223L121.63 81.1955C117.077 80.1837 113.686 76.3641 113.222 71.7227C113.076 70.2564 113.23 68.7756 113.677 67.3713L115.646 61.1853C116.212 59.4039 117.026 57.7108 118.063 56.1553L121.5 51L128.995 37.884C129.314 37.3255 129.361 36.6519 129.122 36.0547C128.467 34.4164 126.209 34.2596 125.333 35.7917L122.47 40.802C121.847 41.8921 120.829 42.7012 119.627 43.062L118.11 43.517C117.06 43.8321 115.94 43.8321 114.89 43.517C112.819 42.8958 111.291 41.1387 110.962 39.002L110.719 37.4217C110.574 36.4812 110.595 35.5226 110.782 34.5895Z" fill="white" fill-opacity="0.3"/>
<path d="M58.8675 62.1026L59.0215 62.5645C59.9044 65.2133 62.3833 67 65.1754 67C67.7942 67 70.1561 65.4254 71.1633 63.0081L71.4231 62.3846C71.8039 61.4706 72 60.4902 72 59.5V51.5754C72 51.1925 72.033 50.8103 72.0986 50.4331L73.245 43.8411C73.5872 41.8736 75.9017 40.9791 77.4781 42.2052C78.1229 42.7067 78.5 43.4778 78.5 44.2946V49.6076C78.5 50.5334 78.4048 51.4568 78.216 52.3631L76 63L74.283 70.2972C74.095 71.0964 74 71.9146 74 72.7356V75.4261C74 77.6319 75.1959 79.6644 77.1242 80.7356C78.0265 81.2369 79.0417 81.5 80.0739 81.5H83.5H95H102C102.99 81.5 103.971 81.3039 104.885 80.9231C107.679 79.7586 109.5 77.0278 109.5 74V71.5V68.407C109.5 64.8659 110.44 61.3883 112.224 58.3296L113 57L114.585 53.1955C115.166 51.8014 115.112 50.2235 114.436 48.8727C113.556 47.1121 111.757 46 109.788 46H107.5H100.035C96.8793 46 93.9223 44.4604 92.1128 41.8754C91.7055 41.2936 91.3636 40.6686 91.0931 40.0119L88.5715 33.8879C88.191 32.9639 87.7419 32.0698 87.2278 31.213L83.5 25L81.698 21.5762C79.7313 17.8395 75.8563 15.5 71.6336 15.5C70.2235 15.5 68.8257 15.7622 67.5115 16.2733L64.3269 17.5118C61.8256 18.4845 59.6466 20.1379 58.0363 22.2849L56.6017 24.1977C56.206 24.7253 55.6929 25.1535 55.103 25.4485C52.8898 26.5551 52.1088 29.348 53.3819 31.4699C53.7827 32.1378 54 32.9114 54 33.6903V39.25C54 41.6842 54.7895 44.0527 56.25 46C57.7105 47.9473 58.5 50.3158 58.5 52.75V59.8377C58.5 60.6075 58.6241 61.3723 58.8675 62.1026Z" fill="white" fill-opacity="0.3"/>
<path d="M17.0261 66.5523L17.3379 67.1758C18.0501 68.6002 19.506 69.5 21.0985 69.5C22.0082 69.5 22.8934 69.2049 23.6212 68.6591L24.1888 68.2334C25.6568 67.1324 26.5751 65.4487 26.7058 63.6183L26.864 61.404C26.9498 60.2029 27.5864 59.1091 28.5883 58.4411L29.1839 58.0441C30.5011 57.1659 32.2685 57.4222 33.282 58.6384C33.7459 59.1951 34 59.8969 34 60.6215V62.4016C34 64.3953 33.2569 66.3174 31.9158 67.7926L29 71L27.7279 72.8173C26.3049 74.8501 25.7753 77.3764 26.2619 79.8096L26.2822 79.9109C26.7418 82.2089 28.0955 84.2303 30.0455 85.5303C31.0059 86.1706 32.0824 86.6165 33.2141 86.8428L37.0388 87.6078C38.3335 87.8667 39.6665 87.8667 40.9612 87.6078L45.529 86.6942C46.1748 86.565 46.8317 86.5 47.4902 86.5H53.5H64.9018C66.1877 86.5 67.3633 85.7735 67.9384 84.6233C68.3008 83.8984 68.392 83.0678 68.1954 82.2816L67 77.5L65.7199 74.1716C64.953 72.1777 63.2826 70.668 61.2216 70.1059C59.7817 69.7132 58.5138 68.8518 57.6183 67.6578L57.4783 67.4711C56.5187 66.1916 56 64.6355 56 63.0361V58.2321C56 57.0859 55.8029 55.9482 55.4174 54.8688L53.5 49.5L50.5 43.5L47.4154 38.8731C46.8092 37.9638 46.0581 37.1601 45.192 36.4938L41.0568 33.3129C40.3554 32.7734 39.5854 32.3293 38.7672 31.9924L33.3292 29.7532C32.1215 29.2559 30.8279 29 29.5217 29H26.8566C25.9591 29 25.0685 29.1569 24.225 29.4636C21.6145 30.4129 19.7176 32.6946 19.2609 35.4345L18.6361 39.1836C18.5455 39.7269 18.5 40.2768 18.5 40.8276V48V57.4844C18.5 58.8053 18.1553 60.1032 17.5 61.25L17.1566 61.8509C16.7263 62.6039 16.5 63.4562 16.5 64.3235C16.5 65.0972 16.6801 65.8603 17.0261 66.5523Z" fill="white" fill-opacity="0.3"/>
</svg>
